<svg xmlns="http://www.w3.org/2000/svg" width="367" height="303" fill="none">
  <path fill="#6259FF" fill-rule="evenodd" d="M32.003 199.27c37.939 89.437 203.459 141.916 246.652 69.419 43.194-72.497-66.099-85.653-104.735-160.569C135.285 33.204 105.263-13.554 49.438 3.513-6.386 20.581-5.936 109.833 32.003 199.27Z" clip-rule="evenodd"/>
  <path fill="#F9818E" fill-rule="evenodd" d="M299.79 257.322c60.679-28.278 92.839-143.526 41.875-171.528-50.965-28.003-57.397 47.579-108.059 75.987-50.662 28.408-82.14 50.207-69.044 88.241 13.096 38.034 74.549 35.578 135.228 7.3Z" clip-rule="evenodd"/>
  <path stroke="#fff" stroke-linecap="round" stroke-linejoin="bevel" stroke-width="5" d="m232 125.266 10.607-10.806m33.549 16.29-12.506-10.503m-9.395 24.913-6.908 14.798"/>
  <path fill="#FFAF7E" d="M67 203.06c37.003 0 67-29.997 67-67s-29.997-67-67-67-67 29.997-67 67 29.997 67 67 67Z"/>
</svg>
